<svg width="360" height="360" viewBox="0 0 360 360" fill="none" xmlns="http://www.w3.org/2000/svg">
<rect width="360" height="360" fill="#F3EFCD"/>
<path d="M281 117V34H78V117H281Z" fill="#184624"/>
<path d="M238.236 160C263.518 160 281.498 174.729 281.498 174.729V326.476H214.452V232.783C214.452 227.119 213.694 221.3 203.326 221.3C192.958 221.3 192.201 227.119 192.201 232.783V317.583C188.239 317.29 184.123 317.1 179.749 317.1C175.374 317.1 171.258 317.29 167.297 317.583V232.783C167.297 227.119 166.539 221.3 156.172 221.3C145.804 221.3 145.046 227.119 145.046 232.783V326.476H78V174.729C78 174.729 95.98 160 121.262 160C146.544 160 157.343 174.729 179.749 174.729C202.155 174.729 212.953 160 238.236 160Z" fill="#184624"/>
</svg>
